<?xml version="1.0" standalone="no"?>
<!DOCTYPE svg PUBLIC "-//W3C//DTD SVG 20010904//EN"
 "http://www.w3.org/TR/2001/REC-SVG-20010904/DTD/svg10.dtd">
<svg version="1.0" xmlns="http://www.w3.org/2000/svg"
 width="480.000000pt" height="480.000000pt" viewBox="0 0 480.000000 480.000000"
 preserveAspectRatio="xMidYMid meet">
<metadata>
Created by potrace 1.14, written by Peter Selinger 2001-2017
</metadata>
<g transform="translate(0.000000,480.000000) scale(0.100000,-0.100000)"
fill="#000000" stroke="none">
<path d="M4055 4606 c-71 -18 -113 -38 -167 -79 -26 -20 -762 -752 -1635
-1627 l-1587 -1591 -102 -237 c-333 -772 -382 -887 -380 -889 3 -3 602 252
628 267 10 5 127 56 260 113 l243 104 1599 1599 c879 879 1611 1618 1628 1642
51 74 71 145 71 252 0 75 -5 108 -23 155 -85 222 -314 346 -535 291z m160
-117 c278 -51 374 -382 168 -581 l-38 -38 -238 238 -238 238 49 46 c59 55 119
87 181 98 25 4 49 8 52 9 3 0 32 -4 64 -10z m-190 -469 l240 -240 -195 -195
-195 -195 -242 242 -243 243 192 192 c106 106 195 193 198 193 3 0 113 -108
245 -240z m-473 -467 c131 -131 238 -242 238 -248 0 -5 -543 -553 -1207 -1217
l-1207 -1207 -30 26 c-17 14 -53 36 -80 49 -38 17 -52 31 -67 63 -27 61 -102
135 -164 162 -45 20 -57 31 -74 69 -11 25 -34 61 -50 80 l-30 35 1212 1213
c667 666 1214 1212 1217 1212 3 0 112 -107 242 -237z m-2718 -2303 c24 -29 46
-86 46 -121 0 -11 13 -18 41 -23 105 -17 178 -90 195 -195 6 -39 8 -41 41 -41
41 0 92 -21 115 -47 17 -19 17 -20 -5 -40 -12 -11 -136 -68 -275 -128 l-254
-108 -95 95 -95 95 107 249 c107 251 128 294 144 294 5 0 21 -14 35 -30z"/>
</g>
</svg>
